<?xml version="1.0" encoding="UTF-8" standalone="no"?>
<svg
   width="420"
   height="320"
   viewBox="0 0 420 320"
   fill="none"
   version="1.1"
   id="svg9"
   sodipodi:docname="privacy-shield.svg"
   xml:space="preserve"
   inkscape:version="1.4.3 (0d15f75, 2025-12-25)"
   xmlns:inkscape="http://www.inkscape.org/namespaces/inkscape"
   xmlns:sodipodi="http://sodipodi.sourceforge.net/DTD/sodipodi-0.dtd"
   xmlns="http://www.w3.org/2000/svg"
   xmlns:svg="http://www.w3.org/2000/svg"><defs
     id="defs9" /><sodipodi:namedview
     id="namedview9"
     pagecolor="#ffffff"
     bordercolor="#000000"
     borderopacity="0.25"
     inkscape:showpageshadow="2"
     inkscape:pageopacity="0.0"
     inkscape:pagecheckerboard="0"
     inkscape:deskcolor="#d1d1d1"
     inkscape:zoom="1.2703125"
     inkscape:cx="110.60271"
     inkscape:cy="182.23862"
     inkscape:window-width="1920"
     inkscape:window-height="1094"
     inkscape:window-x="2869"
     inkscape:window-y="-11"
     inkscape:window-maximized="1"
     inkscape:current-layer="svg9" /><rect
     width="420"
     height="320"
     rx="24"
     fill="#FFF3E5"
     id="rect1" /><circle
     cx="59.830257"
     cy="59.798279"
     r="16"
     fill="#ffddba"
     id="circle1" /><circle
     cx="62.766296"
     cy="218.93112"
     r="27.808119"
     fill="#ffddba"
     id="circle1-8"
     style="stroke-width:1.73801" /><circle
     cx="375.81427"
     cy="190.20789"
     r="21.313654"
     fill="#ffddba"
     id="circle1-8-1"
     style="stroke-width:1.33211" /><circle
     cx="340.81918"
     cy="105.25461"
     r="31.286592"
     fill="#ffddba"
     id="circle2"
     style="stroke-width:2.60722" /><circle
     cx="263.51785"
     cy="234.87823"
     r="68.97171"
     fill="#ffddba"
     id="circle3"
     style="stroke-width:3.83176" /><circle
     cx="296.73309"
     cy="253.56828"
     r="18.558426"
     fill="#ffddba"
     id="circle1-8-2"
     style="fill:#fff3e5;fill-opacity:1;stroke-width:1.1599" /><circle
     cx="336.50674"
     cy="91.915115"
     r="12.260763"
     fill="#ffddba"
     id="circle1-8-2-5"
     style="fill:#fff3e5;fill-opacity:1;stroke-width:0.766297" /><circle
     cx="352.32474"
     cy="123.33458"
     r="4.7822886"
     fill="#ffddba"
     id="circle1-8-2-5-1"
     style="fill:#fff3e5;fill-opacity:1;stroke-width:0.298893" /><circle
     cx="72.728165"
     cy="232.16237"
     r="4.7822886"
     fill="#ffddba"
     id="circle1-8-2-5-1-5"
     style="fill:#fff3e5;fill-opacity:1;stroke-width:0.298893" /><path
     d="M210 34L326 84V156C326 238 270.8 292.7 210 311C149.2 292.7 94 238 94 156V84L210 34Z"
     fill="#F57C00"
     id="path3" /><path
     d="M210 54L307 96V156C307 226.8 259.3 273.3 210 289C160.7 273.3 113 226.8 113 156V96L210 54Z"
     fill="#EF7800"
     id="path4" /><circle
     cx="210"
     cy="160"
     r="64"
     fill="#FFFFFF"
     id="circle4" /><g
     inkscape:label="Layer 1"
     id="layer1"
     transform="matrix(2.4070928,0,0,2.4070928,78.528674,31.539747)"
     style="display:inline"><path
       style="fill:#ffffff;fill-opacity:1;stroke:none;stroke-width:0;stroke-linecap:round"
       d="M 54,16 C 33,16 16,33 16,54 16,75 33,92 54,92 75,92 92,75 92,54 92,33 75,16 54,16 Z"
       id="path4-0"
       inkscape:export-filename="face_2_1.svg"
       inkscape:export-xdpi="96"
       inkscape:export-ydpi="96" /><path
       style="fill:#ef7800;fill-opacity:1;stroke:none;stroke-width:0;stroke-linecap:round"
       d="m 54,76 c -8.6,0 -16.2,-4.6 -20.3,-11.5 -0.8,-1.3 0.2,-3 1.8,-3 h 37 c 1.6,0 2.6,1.7 1.8,3 C 70.2,71.4 62.6,76 54,76 Z"
       id="path3-9" /><path
       style="fill:#ef7800;fill-opacity:1;stroke:none;stroke-width:0;stroke-linecap:round"
       d="m 69,46 c 2.761426,0 4.999998,2.238576 4.999998,5 0,2.761424 -2.238572,5 -4.999998,5 -6.666664,0 -6.666664,-10 0,-10 z"
       id="path2" /><path
       style="fill:#ef7800;fill-opacity:1;stroke:none;stroke-width:0;stroke-linecap:round"
       d="m 39,46 c 2.761426,0 4.999998,2.238576 4.999998,5 0,2.761424 -2.238572,5 -4.999998,5 -6.666664,0 -6.666664,-10 0,-10 z"
       id="path1" /></g></svg>
